<?xml version="1.0" encoding="UTF-8"?>
<svg id="Layer_1" data-name="Layer 1" xmlns="http://www.w3.org/2000/svg" version="1.1" viewBox="0 0 1972 349.8">
  <defs>
    <style>
      .cls-1 {
        fill: #000;
        stroke-width: 0px;
      }
    </style>
  </defs>
  <path class="cls-1" d="M479.4,7.9v212.6c1.9-1.3,3.1-1.9,4.2-2.8,32.9-27.6,66-55.1,98.7-83,5.6-4.8,11-3.8,16.8-3.8.2.4.5.8.7,1.3-27.1,23.4-54.3,46.8-81.9,70.7,37.7,44.7,75.1,89.1,112.7,133.8-1.3.5-1.9.9-2.4.9-13.2,0-26.3.2-39.5,0-1.9,0-4.1-2-5.5-3.6-29.4-35.1-58.7-70.3-88-105.5-.8-1-1.8-2-3.1-3.5-3.9,3.4-8,6.5-11.5,10.1-1,1-.9,3.4-.9,5.2,0,30.5-.1,61,0,91.5,0,4.9-1.4,6.4-6.2,6.2-9.5-.3-19-.3-28.5,0-4.5.1-6-1.3-6-6,.2-51.3,0-102.6,0-154,0-50.2,0-100.3-.1-150.5,0-5.1,1.6-7.3,6.4-8.7,10.3-3.1,20.5-6.8,30.7-10.2.9-.3,1.9-.3,3.3-.6Z"/>
  <path class="cls-1" d="M1571.6,164.5c10.6-8.8,20.6-18.1,31.5-26.1,31.6-22.9,79.6-16.6,103.5,4.4,14,12.3,21.5,28,21.8,46.5.5,31.8,0,63.7.5,95.5.2,13.8,1.6,27.5,2.7,41.3.3,3.6,1.6,7,2.6,11-1.6.2-3,.5-4.4.5-10.2,0-20.3-.1-30.5,0-4.1,0-6.5-1.7-7-5.4-1.2-8.7-2.9-17.4-3-26.2-.5-39.7-.4-79.3-.8-119,0-7.4-.6-15.1-2.6-22.2-8.3-29-38.8-41.7-64.9-26.7-22,12.6-37.4,31.8-48.5,54.4-.9,1.8-.8,4.2-.8,6.3,0,44.2-.1,88.3,0,132.5,0,4.7-1.2,6.4-6.1,6.3-9.7-.3-19.3-.2-29,0-3.9,0-5.5-1.1-5.5-5.4.1-65.5.1-131,0-196.5,0-3.8,1-5.4,5.1-5.3,10.2.2,20.3.2,30.5,0,4.1,0,5.1,1.5,5,5.3-.2,9.8,0,19.6,0,28.7Z"/>
  <path class="cls-1" d="M398,337.7c-2.1,0-5,0-8,0-8.7,0-17.3-.1-26,0-3.8,0-6.2-1.4-6.8-5.1-1.1-6.4-2.1-12.7-3-19.1-.3-2.2,0-4.6,0-7.3-14.5,1.7-25.2,8.9-34.7,18.3-9,9-19.4,15.2-31.8,17.8-25.9,5.6-48.6-.4-67.1-19.7-17.9-18.6-18.6-48.6-1.9-68.9,11.4-13.8,25.9-23.4,42.4-30,15.4-6.2,31.2-11.7,46.5-18.1,10.1-4.3,19.9-9.3,29.4-14.8,9-5.2,16.2-12.5,15.1-23.9-1.4-14-7.1-25.9-21.3-31.2-23.2-8.5-51.8-3.9-67.7,20.2-4.9,7.4-8,15.9-12.4,24.8-7.6-2.2-16.1-4.6-24.6-7.1,0-.9,0-1.5.2-1.8,16.5-22,36.4-39.6,64.1-45.5,26.5-5.7,51.8-1.7,74.5,13.5,16.9,11.3,24.4,28.6,27.7,47.9,1.4,8.2,1.6,16.6,1.7,24.9.3,31.2,0,62.3.6,93.5.2,10.2,2.1,20.4,3.3,31.7ZM353.8,192.3c-18.7,8.7-37,17-55.1,25.7-7.8,3.7-15.4,8-22.5,12.8-26.6,17.7-33.7,41-28.4,70,3.1,17,13.1,26.7,29.6,29.4,10.8,1.8,20.9-1.1,29.8-7.2,8.5-5.8,16.4-12.4,24.8-18.5,5.8-4.2,11.6-8.3,17.9-11.7,2.9-1.6,4.2-2.7,4.2-6.1-.1-30.3,0-60.6,0-90.9,0-1.1-.1-2.3-.2-3.5Z"/>
  <path class="cls-1" d="M949.5,278.3c10.4,3.3,20.4,6.4,30.7,9.7-5.1,10-11.7,18.2-19.3,25.4-22.4,21.3-49,32-80.2,30.7-43.2-1.7-77-20.4-97.5-58.4-33.1-61.3-2.2-139,71.3-157.9,31.4-8,62.3-5.5,90.5,11.8,9.3,5.7,17.4,13.8,25.3,21.6,5.8,5.8,8.9,13.5,10.6,21.7,3.3,15.9-4.5,27.4-20.6,27.8-20.1.5-40.2-.2-60.3-.6-16.3-.3-32.7-1.5-48.3,5-18.1,7.5-31.6,19.4-34.7,39.8-5.5,37,17.5,74.1,54.3,80.5,35.1,6,62.4-10.9,74.7-46.5,1.2-3.4,2.2-6.8,3.5-10.7ZM811.8,249.6c6.2-24.9,22.6-37.9,45.4-44.1,17.6-4.8,35.6-4,53.5-3.4,8.3.3,16.7.3,24.9-.6,10.9-1.2,17.4-9.2,17.5-20.1.1-14.2-5-26.1-15.8-35.2-17.2-14.3-37.3-15.7-58-10.5-21.5,5.3-36.6,19.7-48.8,37.4-15.6,22.8-20.8,48.2-18.7,76.4Z"/>
  <path class="cls-1" d="M1939.8,278.3c10.5,3.3,20.4,6.4,31.9,10.1-6.5,8.2-11.6,16-18,22.6-22.6,23-50,34.5-82.6,33.2-43.3-1.7-77.1-20.4-97.5-58.4-32.8-61-2.8-138.9,71.4-157.8,35.2-8.9,69.1-4.7,99.3,17.6,12.8,9.5,23.4,20.9,27,37.2,3.6,16.6-4.7,28.1-21.7,28.3-25.1.2-50.2-.5-75.3-.9-11.1-.2-22,1-32.3,5.3-18.7,7.7-32.1,20.2-34.9,41.3-4.9,37.2,20.6,75.1,58.1,79.3,39.8,4.5,62.1-18.8,71.9-49.4.8-2.5,1.6-5,2.6-8.3ZM1801.9,250c7.1-27.2,25.2-40.1,50-45.6,16.4-3.7,33.1-2.8,49.7-2.3,8.1.2,16.3.2,24.4-.6,9.2-.9,16.3-7.9,17.1-16.2,1.1-11.5-1.4-22.1-8.4-31.5-11-14.8-26.6-20.1-44-20.6-25.6-.8-45.8,10.6-62.1,29.7-21.1,24.8-28.8,53.8-26.6,87.1Z"/>
  <path class="cls-1" d="M1473.4,278.5c9.9,3.1,19.8,6.2,30.5,9.6-1.2,2.2-2.1,3.9-3.1,5.5-18.9,28.5-45,46.3-79.1,50.1-58.8,6.5-107.7-27.3-123-76.7-19.4-62.7,20.2-128,84.8-140.3,33.1-6.3,64.7-2.4,92.7,17.9,12.7,9.2,23.7,20.1,27.6,36.1.9,3.7,1.6,7.6,1.3,11.3-1,11.4-8.7,18.7-21.2,18.9-20.3.3-40.5-.3-60.8-.7-16.1-.3-32.4-1.4-47.8,5-17,7-30.1,17.9-34.2,36.8-7.6,35.2,14.7,76.7,53.5,83.5,30.9,5.4,56.7-7.4,70.3-35.7,3.2-6.7,5.5-13.8,8.4-21.3ZM1334.6,247.2c.4,0,.7,0,1.1,0,.2-.4.5-.7.6-1.1,7-23.9,24.5-35.9,47.5-41.4,16.9-4,34-3.2,51.2-2.6,8.1.3,16.3.2,24.4-.6,8.6-.8,15.9-7.5,16.7-14.9,1.4-11.6-.6-22.5-7.6-32.2-11-15.3-26.8-20.8-44.7-21.3-24.2-.7-43.7,9.5-59.8,27.2-18.9,20.9-27.9,45.7-29.3,73.6-.2,4.4,0,8.8,0,13.3Z"/>
  <path class="cls-1" d="M212.6,130.7c-1.1,2.7-1.6,4.4-2.4,6.1-29.2,65.1-58.4,130.2-87.4,195.4-1.8,4.2-4.3,5-8.6,5.7-13.7,2.2-20-3.4-25.6-16.1-27.4-61.9-56.1-123.3-84.3-184.8-.8-1.7-1.4-3.6-2.4-6,2.6-.1,4.3-.3,6.1-.3,10.8,0,21.7.2,32.5-.1,4.9-.2,7.3,1.4,9.3,6,20.4,46.1,41.1,92.1,61.6,138.1,4.6,10.3,9.2,20.6,14.1,31.6.8-1.3,1.3-1.9,1.7-2.7,16.1-38.9,32.3-77.7,48.3-116.6,6.7-16.3,10.8-33.2,9.6-51-.3-3.9,1-5.3,5-5.2,7.1.3,14.3,0,22.5,0Z"/>
  <path class="cls-1" d="M1080.1,130.7c15,0,29-.1,43,.2,1.5,0,3.6,2.6,4.4,4.5,17.8,39.4,35.4,78.9,53.1,118.4,7,15.6,14,31.3,21,46.9.7,1.6,1.5,3.2,2.7,5.5,1-2.1,1.7-3.6,2.3-5,15.7-37.9,31.5-75.9,47.2-113.9,5.8-14.1,9.4-28.7,10.2-44,.2-3-.6-6-.4-8.9.1-1.3,1.6-3.6,2.6-3.6,8-.3,15.9-.2,24.8-.2-.9,2.4-1.4,4.1-2.1,5.7-29.3,65.5-58.6,130.9-87.8,196.4-1.6,3.6-3.5,5.2-7.5,4.9-4.3-.3-8.7-.3-13,0-4.3.3-6.5-1.4-8.3-5.3-20.2-44.4-40.6-88.7-60.9-133-9.6-20.9-19.1-41.7-28.7-62.6-.7-1.6-1.3-3.3-2.4-6Z"/>
  <path class="cls-1" d="M687.6,196.1c32.3-46.4,61.8-67.8,87.7-64-.2,1-.1,2.2-.5,3.1-2.7,7.2-5.6,14.3-8.1,21.4-1,2.6-2.4,3.5-5.2,3.5-36.9-.9-58.7,19.7-72.9,51.2-.9,2-1,4.5-1,6.8,0,37.8-.1,75.6,0,113.5,0,4.8-1.4,6.3-6.2,6.2-9.7-.3-19.3-.2-29,0-3.9,0-5.2-1.4-5.2-5.3,0-65.5,0-131,0-196.4,0-4.2,1.5-5.5,5.5-5.4,9.8.2,19.7.3,29.5,0,4.2-.1,5.3,1.4,5.3,5.5-.2,19.6,0,39.3,0,60Z"/>
</svg>