<svg width="16" height="17" viewBox="0 0 16 17" fill="none" xmlns="http://www.w3.org/2000/svg">
<g clip-path="url(#clip0_6061_6644)">
<path d="M8 2.24141C10.1375 2.24141 10.3906 2.25078 11.2313 2.28828C12.0125 2.32266 12.4344 2.45391 12.7156 2.56328C13.0875 2.70703 13.3563 2.88203 13.6344 3.16016C13.9156 3.44141 14.0875 3.70703 14.2313 4.07891C14.3406 4.36016 14.4719 4.78516 14.5063 5.56328C14.5438 6.40703 14.5531 6.66016 14.5531 8.79453C14.5531 10.932 14.5438 11.1852 14.5063 12.0258C14.4719 12.807 14.3406 13.2289 14.2313 13.5102C14.0875 13.882 13.9125 14.1508 13.6344 14.4289C13.3531 14.7102 13.0875 14.882 12.7156 15.0258C12.4344 15.1352 12.0094 15.2664 11.2313 15.3008C10.3875 15.3383 10.1344 15.3477 8 15.3477C5.8625 15.3477 5.60938 15.3383 4.76875 15.3008C3.9875 15.2664 3.56563 15.1352 3.28438 15.0258C2.9125 14.882 2.64375 14.707 2.36563 14.4289C2.08438 14.1477 1.9125 13.882 1.76875 13.5102C1.65938 13.2289 1.52813 12.8039 1.49375 12.0258C1.45625 11.182 1.44688 10.9289 1.44688 8.79453C1.44688 6.65703 1.45625 6.40391 1.49375 5.56328C1.52813 4.78203 1.65938 4.36016 1.76875 4.07891C1.9125 3.70703 2.0875 3.43828 2.36563 3.16016C2.64688 2.87891 2.9125 2.70703 3.28438 2.56328C3.56563 2.45391 3.99063 2.32266 4.76875 2.28828C5.60938 2.25078 5.8625 2.24141 8 2.24141ZM8 0.800781C5.82813 0.800781 5.55625 0.810156 4.70313 0.847656C3.85313 0.885156 3.26875 1.02266 2.7625 1.21953C2.23438 1.42578 1.7875 1.69766 1.34375 2.14453C0.896875 2.58828 0.625 3.03516 0.41875 3.56016C0.221875 4.06953 0.084375 4.65078 0.046875 5.50078C0.009375 6.35703 0 6.62891 0 8.80078C0 10.9727 0.009375 11.2445 0.046875 12.0977C0.084375 12.9477 0.221875 13.532 0.41875 14.0383C0.625 14.5664 0.896875 15.0133 1.34375 15.457C1.7875 15.9008 2.23438 16.1758 2.75938 16.3789C3.26875 16.5758 3.85 16.7133 4.7 16.7508C5.55313 16.7883 5.825 16.7977 7.99688 16.7977C10.1688 16.7977 10.4406 16.7883 11.2938 16.7508C12.1438 16.7133 12.7281 16.5758 13.2344 16.3789C13.7594 16.1758 14.2063 15.9008 14.65 15.457C15.0938 15.0133 15.3688 14.5664 15.5719 14.0414C15.7688 13.532 15.9063 12.9508 15.9438 12.1008C15.9813 11.2477 15.9906 10.9758 15.9906 8.80391C15.9906 6.63203 15.9813 6.36016 15.9438 5.50703C15.9063 4.65703 15.7688 4.07266 15.5719 3.56641C15.375 3.03516 15.1031 2.58828 14.6563 2.14453C14.2125 1.70078 13.7656 1.42578 13.2406 1.22266C12.7313 1.02578 12.15 0.888281 11.3 0.850781C10.4438 0.810156 10.1719 0.800781 8 0.800781Z" fill="#111E2D"/>
<path d="M8 4.69141C5.73125 4.69141 3.89062 6.53203 3.89062 8.80078C3.89062 11.0695 5.73125 12.9102 8 12.9102C10.2688 12.9102 12.1094 11.0695 12.1094 8.80078C12.1094 6.53203 10.2688 4.69141 8 4.69141ZM8 11.4664C6.52813 11.4664 5.33437 10.2727 5.33437 8.80078C5.33437 7.32891 6.52813 6.13516 8 6.13516C9.47188 6.13516 10.6656 7.32891 10.6656 8.80078C10.6656 10.2727 9.47188 11.4664 8 11.4664Z" fill="#111E2D"/>
<path d="M13.2312 4.52871C13.2312 5.05996 12.8 5.48809 12.2719 5.48809C11.7406 5.48809 11.3125 5.05684 11.3125 4.52871C11.3125 3.99746 11.7438 3.56934 12.2719 3.56934C12.8 3.56934 13.2312 4.00059 13.2312 4.52871Z" fill="#111E2D"/>
</g>
<defs>
<clipPath id="clip0_6061_6644">
<rect width="16" height="16" fill="white" transform="translate(0 0.800781)"/>
</clipPath>
</defs>
</svg>
