<svg width="16" height="12" viewBox="0 0 16 12" fill="none" xmlns="http://www.w3.org/2000/svg">
<path d="M15.8406 2.60244C15.8406 2.60244 15.6844 1.49932 15.2031 1.01494C14.5938 0.377441 13.9125 0.374316 13.6 0.336816C11.3625 0.174316 8.00313 0.174316 8.00313 0.174316H7.99687C7.99687 0.174316 4.6375 0.174316 2.4 0.336816C2.0875 0.374316 1.40625 0.377441 0.796875 1.01494C0.315625 1.49932 0.1625 2.60244 0.1625 2.60244C0.1625 2.60244 0 3.89932 0 5.19307V6.40557C0 7.69932 0.159375 8.99619 0.159375 8.99619C0.159375 8.99619 0.315625 10.0993 0.79375 10.5837C1.40313 11.2212 2.20313 11.1993 2.55938 11.2681C3.84063 11.3899 8 11.4274 8 11.4274C8 11.4274 11.3625 11.4212 13.6 11.2618C13.9125 11.2243 14.5938 11.2212 15.2031 10.5837C15.6844 10.0993 15.8406 8.99619 15.8406 8.99619C15.8406 8.99619 16 7.70244 16 6.40557V5.19307C16 3.89932 15.8406 2.60244 15.8406 2.60244ZM6.34688 7.87744V3.38057L10.6687 5.63682L6.34688 7.87744Z" fill="#111E2D"/>
</svg>
